<?xml version="1.0" standalone="no"?>
<!DOCTYPE svg PUBLIC "-//W3C//DTD SVG 20010904//EN"
 "http://www.w3.org/TR/2001/REC-SVG-20010904/DTD/svg10.dtd">
<svg version="1.0" xmlns="http://www.w3.org/2000/svg"
 width="75.000000pt" height="75.000000pt" viewBox="0 0 75.000000 75.000000"
 preserveAspectRatio="xMidYMid meet">

<g transform="translate(0.000000,75.000000) scale(0.100000,-0.100000)"
fill="#000000" stroke="none">
<path d="M50 742 c0 -5 14 -45 30 -90 41 -113 42 -112 -25 -97 -52 13 -55 12
-55 -6 0 -11 10 -23 22 -28 l23 -8 -23 -7 c-18 -6 -22 -15 -22 -52 0 -37 4
-46 23 -54 l22 -9 -22 0 c-21 -1 -23 -6 -23 -61 l0 -59 38 -11 c20 -6 47 -16
59 -23 l23 -13 -28 -29 c-16 -17 -43 -38 -60 -47 -31 -17 -32 -19 -32 -83 l0
-65 141 0 c112 0 139 3 132 13 -6 6 -15 27 -21 44 -10 30 -9 33 8 33 34 0 34
22 -1 52 -22 19 -25 24 -8 14 33 -21 78 -72 55 -63 -10 4 -15 3 -11 -3 3 -6
15 -10 26 -10 17 0 18 3 9 21 -10 19 -10 20 9 10 11 -6 29 -24 41 -41 14 -20
30 -30 46 -30 29 0 74 41 74 68 0 10 11 32 26 48 19 22 24 36 20 61 -2 18 0
35 5 38 5 4 9 -8 9 -25 l0 -30 29 32 28 32 15 -29 15 -28 7 28 c4 16 16 40 27
53 10 14 19 33 19 42 0 19 -75 175 -96 200 -7 8 -17 43 -23 77 -13 82 -44 143
-74 143 -27 -1 -67 -59 -67 -98 0 -15 -4 -34 -9 -41 -6 -10 -8 1 -4 30 3 24
14 55 24 68 22 28 24 41 7 41 -22 0 -62 -70 -64 -112 -1 -22 -8 -44 -15 -49
-16 -10 -39 8 -38 30 0 11 3 9 9 -6 12 -30 18 -29 12 2 -2 13 -1 33 3 42 5 10
7 24 6 31 -1 8 7 16 18 19 28 7 28 43 0 43 -14 0 -19 -5 -16 -13 3 -8 1 -20
-5 -28 -8 -11 -9 -10 -4 4 4 11 2 16 -5 12 -6 -4 -8 -13 -5 -21 8 -20 -9 -26
-39 -12 -20 9 -31 9 -45 0 -14 -9 -27 -8 -59 5 -50 20 -74 12 -65 -21 3 -14 1
-32 -4 -42 -8 -14 -14 -4 -32 50 -17 51 -26 66 -41 66 -10 0 -19 -4 -19 -8z
m148 -54 c7 -7 12 -8 12 -3 0 4 9 0 20 -10 11 -10 20 -25 20 -34 0 -9 7 -29
15 -45 8 -15 14 -38 14 -50 -1 -20 -2 -20 -6 -1 -2 11 -11 34 -19 52 -8 17
-14 39 -15 50 -1 13 -3 11 -8 -7 -5 -16 -3 -32 6 -45 15 -23 17 -65 3 -65 -5
0 -10 11 -10 23 0 13 -3 27 -7 31 -5 4 -8 11 -9 14 -1 10 -14 43 -26 69 -6 12
-18 24 -27 26 -11 3 -10 5 5 6 11 0 25 -4 32 -11z m122 -13 c25 -14 25 -14
-12 -12 -23 1 -38 7 -38 15 0 16 19 15 50 -3z m-159 -52 c-12 -20 -14 -14 -5
12 4 9 9 14 11 11 3 -2 0 -13 -6 -23z m157 18 c8 -4 12 -19 10 -32 -3 -23 -4
-23 -21 9 -17 32 -14 39 11 23z m-126 -49 c-8 -2 -6 -11 4 -27 9 -14 14 -30
11 -37 -4 -9 -6 -8 -6 3 -1 9 -10 28 -21 42 -19 24 -20 26 -3 36 13 7 19 6 22
-2 2 -6 -1 -13 -7 -15z m108 -229 c0 -7 -7 -13 -15 -13 -8 0 -15 8 -15 18 0
10 -7 29 -17 42 -14 22 -13 22 15 -4 18 -17 32 -36 32 -43z m106 45 c4 -7 3
-8 -4 -4 -12 7 -35 -27 -25 -38 3 -3 17 -6 29 -6 28 0 38 -14 26 -36 -7 -13
-13 -12 -40 11 -36 30 -39 41 -15 67 19 21 20 21 29 6z m-70 -20 c4 -7 3 -8
-4 -4 -17 10 -15 -19 2 -52 18 -34 74 -88 82 -79 4 4 -12 27 -35 52 -22 24
-41 50 -41 56 0 15 84 -59 98 -86 9 -17 11 -18 11 -2 1 21 27 23 35 1 3 -9 6
-27 6 -41 0 -22 -2 -24 -16 -12 -10 8 -8 0 6 -24 12 -20 20 -42 18 -48 -2 -7
-14 5 -26 26 -29 49 -35 41 -14 -17 17 -50 10 -97 -16 -106 -10 -3 -9 3 3 22
17 25 17 29 1 71 -10 24 -42 71 -71 105 -30 33 -57 73 -60 88 -4 15 -8 35 -10
45 -4 19 20 24 31 5z m158 -56 c2 -4 -4 -9 -15 -9 -10 -1 -19 2 -19 8 0 11 27
12 34 1z m43 -136 c-8 -21 -37 -9 -37 16 0 10 5 16 10 13 6 -3 10 2 11 12 0
15 2 15 11 -4 6 -12 8 -29 5 -37z"/>
<path d="M210 670 c0 -5 5 -10 11 -10 5 0 7 5 4 10 -3 6 -8 10 -11 10 -2 0 -4
-4 -4 -10z"/>
</g>
</svg>
